<mxfile host="app.diagrams.net" agent="Mozilla/5.0 (Windows NT 10.0; Win64; x64) AppleWebKit/537.36 (KHTML, like Gecko) Chrome/139.0.0.0 Safari/537.36" version="28.2.7">
  <diagram name="Page-1" id="EJ1yezNTaf4-5R43Sayd">
    <mxGraphModel dx="1603" dy="1345" grid="0" gridSize="10" guides="1" tooltips="1" connect="1" arrows="1" fold="1" page="0" pageScale="1" pageWidth="1920" pageHeight="1200" math="0" shadow="0">
      <root>
        <mxCell id="0" />
        <mxCell id="1" parent="0" />
        <mxCell id="cfBLmCmzg_fQDiiJpG3t-11" style="edgeStyle=none;curved=1;rounded=0;orthogonalLoop=1;jettySize=auto;html=1;fontSize=12;startSize=8;endSize=8;" edge="1" parent="1" source="cfBLmCmzg_fQDiiJpG3t-1">
          <mxGeometry relative="1" as="geometry">
            <mxPoint x="73.99999999999989" y="222.96555512526947" as="targetPoint" />
          </mxGeometry>
        </mxCell>
        <mxCell id="cfBLmCmzg_fQDiiJpG3t-1" value="1.ลูกค้าสั่งอาหาร" style="text;html=1;whiteSpace=wrap;strokeColor=none;fillColor=none;align=center;verticalAlign=middle;rounded=0;fontSize=18;" vertex="1" parent="1">
          <mxGeometry x="16" y="273" width="116" height="30" as="geometry" />
        </mxCell>
        <mxCell id="cfBLmCmzg_fQDiiJpG3t-12" style="edgeStyle=none;curved=1;rounded=0;orthogonalLoop=1;jettySize=auto;html=1;fontSize=12;startSize=8;endSize=8;" edge="1" parent="1" source="cfBLmCmzg_fQDiiJpG3t-2">
          <mxGeometry relative="1" as="geometry">
            <mxPoint x="73.99999999999989" y="126.41378889412715" as="targetPoint" />
          </mxGeometry>
        </mxCell>
        <mxCell id="cfBLmCmzg_fQDiiJpG3t-2" value="2.พนักงานรับออเดอร์" style="text;html=1;whiteSpace=wrap;strokeColor=none;fillColor=none;align=center;verticalAlign=middle;rounded=0;fontSize=18;" vertex="1" parent="1">
          <mxGeometry x="16" y="179" width="116" height="30" as="geometry" />
        </mxCell>
        <mxCell id="cfBLmCmzg_fQDiiJpG3t-13" style="edgeStyle=none;curved=1;rounded=0;orthogonalLoop=1;jettySize=auto;html=1;fontSize=12;startSize=8;endSize=8;" edge="1" parent="1">
          <mxGeometry relative="1" as="geometry">
            <mxPoint x="75.49999999999989" y="27.103444066540987" as="targetPoint" />
            <mxPoint x="75" y="75" as="sourcePoint" />
          </mxGeometry>
        </mxCell>
        <mxCell id="cfBLmCmzg_fQDiiJpG3t-3" value="3.พนักงานคำนวณค่าอาหาร" style="text;html=1;whiteSpace=wrap;strokeColor=none;fillColor=none;align=center;verticalAlign=middle;rounded=0;fontSize=18;" vertex="1" parent="1">
          <mxGeometry x="9" y="85" width="133" height="30" as="geometry" />
        </mxCell>
        <mxCell id="cfBLmCmzg_fQDiiJpG3t-14" style="edgeStyle=none;curved=1;rounded=0;orthogonalLoop=1;jettySize=auto;html=1;fontSize=12;startSize=8;endSize=8;" edge="1" parent="1" source="cfBLmCmzg_fQDiiJpG3t-4">
          <mxGeometry relative="1" as="geometry">
            <mxPoint x="74.5" y="-52.344829690867414" as="targetPoint" />
          </mxGeometry>
        </mxCell>
        <mxCell id="cfBLmCmzg_fQDiiJpG3t-4" value="4.ลูกค้าชำระเงิน" style="text;html=1;whiteSpace=wrap;strokeColor=none;fillColor=none;align=center;verticalAlign=middle;rounded=0;fontSize=18;" vertex="1" parent="1">
          <mxGeometry x="13" y="-9" width="123" height="30" as="geometry" />
        </mxCell>
        <mxCell id="cfBLmCmzg_fQDiiJpG3t-15" style="edgeStyle=none;curved=1;rounded=0;orthogonalLoop=1;jettySize=auto;html=1;fontSize=12;startSize=8;endSize=8;" edge="1" parent="1" source="cfBLmCmzg_fQDiiJpG3t-5">
          <mxGeometry relative="1" as="geometry">
            <mxPoint x="238.85710797991078" y="-77" as="targetPoint" />
          </mxGeometry>
        </mxCell>
        <mxCell id="cfBLmCmzg_fQDiiJpG3t-5" value="5.พนักงานออกบิลใบเสร็จ" style="text;html=1;whiteSpace=wrap;strokeColor=none;fillColor=none;align=center;verticalAlign=middle;rounded=0;fontSize=18;" vertex="1" parent="1">
          <mxGeometry x="24" y="-92" width="123" height="30" as="geometry" />
        </mxCell>
        <mxCell id="cfBLmCmzg_fQDiiJpG3t-16" style="edgeStyle=none;curved=1;rounded=0;orthogonalLoop=1;jettySize=auto;html=1;entryX=0;entryY=0.5;entryDx=0;entryDy=0;fontSize=12;startSize=8;endSize=8;" edge="1" parent="1" target="cfBLmCmzg_fQDiiJpG3t-7">
          <mxGeometry relative="1" as="geometry">
            <mxPoint x="423" y="-77" as="sourcePoint" />
          </mxGeometry>
        </mxCell>
        <mxCell id="cfBLmCmzg_fQDiiJpG3t-24" style="edgeStyle=none;curved=1;rounded=0;orthogonalLoop=1;jettySize=auto;html=1;fontSize=12;startSize=8;endSize=8;" edge="1" parent="1">
          <mxGeometry relative="1" as="geometry">
            <mxPoint x="327.5" y="-100.99990844726562" as="targetPoint" />
            <mxPoint x="328" y="-141" as="sourcePoint" />
          </mxGeometry>
        </mxCell>
        <mxCell id="cfBLmCmzg_fQDiiJpG3t-6" value="ฝ่ายครัวเตรียมวัตถุดิบ&amp;nbsp;" style="text;html=1;whiteSpace=wrap;strokeColor=none;fillColor=none;align=center;verticalAlign=middle;rounded=0;fontSize=18;" vertex="1" parent="1">
          <mxGeometry x="247" y="-183" width="161" height="30" as="geometry" />
        </mxCell>
        <mxCell id="cfBLmCmzg_fQDiiJpG3t-17" style="edgeStyle=none;curved=1;rounded=0;orthogonalLoop=1;jettySize=auto;html=1;entryX=0;entryY=0.75;entryDx=0;entryDy=0;fontSize=12;startSize=8;endSize=8;" edge="1" parent="1" source="cfBLmCmzg_fQDiiJpG3t-7" target="cfBLmCmzg_fQDiiJpG3t-8">
          <mxGeometry relative="1" as="geometry" />
        </mxCell>
        <mxCell id="cfBLmCmzg_fQDiiJpG3t-7" value="7.พนักงานนำอาหารไปให้ลูกค้า" style="text;html=1;whiteSpace=wrap;strokeColor=none;fillColor=none;align=center;verticalAlign=middle;rounded=0;fontSize=18;" vertex="1" parent="1">
          <mxGeometry x="508" y="-92" width="161" height="30" as="geometry" />
        </mxCell>
        <mxCell id="cfBLmCmzg_fQDiiJpG3t-8" value="8.ลูกค้ารับอาหาร" style="text;html=1;whiteSpace=wrap;strokeColor=none;fillColor=none;align=center;verticalAlign=middle;rounded=0;fontSize=18;" vertex="1" parent="1">
          <mxGeometry x="716" y="-101" width="161" height="30" as="geometry" />
        </mxCell>
        <mxCell id="cfBLmCmzg_fQDiiJpG3t-18" value="&lt;span style=&quot;color: rgb(0, 0, 0); font-family: Helvetica; font-size: 18px; font-style: normal; font-variant-ligatures: normal; font-variant-caps: normal; font-weight: 400; letter-spacing: normal; orphans: 2; text-align: center; text-indent: 0px; text-transform: none; widows: 2; word-spacing: 0px; -webkit-text-stroke-width: 0px; white-space: normal; background-color: rgb(236, 236, 236); text-decoration-thickness: initial; text-decoration-style: initial; text-decoration-color: initial; float: none; display: inline !important;&quot;&gt;6.ฝ่ายครัวทำอาหาร&lt;/span&gt;" style="text;whiteSpace=wrap;html=1;" vertex="1" parent="1">
          <mxGeometry x="256" y="-95" width="159" height="44" as="geometry" />
        </mxCell>
        <mxCell id="cfBLmCmzg_fQDiiJpG3t-21" style="edgeStyle=none;curved=1;rounded=0;orthogonalLoop=1;jettySize=auto;html=1;fontSize=12;startSize=8;endSize=8;" edge="1" parent="1" source="cfBLmCmzg_fQDiiJpG3t-19">
          <mxGeometry relative="1" as="geometry">
            <mxPoint x="327.5" y="-197.28575352260032" as="targetPoint" />
          </mxGeometry>
        </mxCell>
        <mxCell id="cfBLmCmzg_fQDiiJpG3t-26" style="edgeStyle=none;curved=1;rounded=0;orthogonalLoop=1;jettySize=auto;html=1;fontSize=12;startSize=8;endSize=8;" edge="1" parent="1" source="cfBLmCmzg_fQDiiJpG3t-19">
          <mxGeometry relative="1" as="geometry">
            <mxPoint x="430.800048828125" y="-314.5" as="targetPoint" />
          </mxGeometry>
        </mxCell>
        <mxCell id="cfBLmCmzg_fQDiiJpG3t-19" value="ตรวจสอบวัตถุดิบคงเหลือ" style="rhombus;whiteSpace=wrap;html=1;fontSize=18;" vertex="1" parent="1">
          <mxGeometry x="255.25" y="-388" width="144.5" height="147" as="geometry" />
        </mxCell>
        <mxCell id="cfBLmCmzg_fQDiiJpG3t-22" value="&lt;span style=&quot;color: rgb(0, 0, 0); font-family: Helvetica; font-size: 18px; font-style: normal; font-variant-ligatures: normal; font-variant-caps: normal; font-weight: 400; letter-spacing: normal; orphans: 2; text-align: center; text-indent: 0px; text-transform: none; widows: 2; word-spacing: 0px; -webkit-text-stroke-width: 0px; white-space: normal; background-color: rgb(236, 236, 236); text-decoration-thickness: initial; text-decoration-style: initial; text-decoration-color: initial; float: none; display: inline !important;&quot;&gt;ไม่สั่งซื้อ&lt;/span&gt;" style="text;whiteSpace=wrap;html=1;" vertex="1" parent="1">
          <mxGeometry x="341" y="-243" width="159" height="44" as="geometry" />
        </mxCell>
        <mxCell id="cfBLmCmzg_fQDiiJpG3t-31" style="edgeStyle=none;curved=1;rounded=0;orthogonalLoop=1;jettySize=auto;html=1;fontSize=12;startSize=8;endSize=8;" edge="1" parent="1" source="cfBLmCmzg_fQDiiJpG3t-23">
          <mxGeometry relative="1" as="geometry">
            <mxPoint x="527.0434782608697" y="-310" as="targetPoint" />
          </mxGeometry>
        </mxCell>
        <mxCell id="cfBLmCmzg_fQDiiJpG3t-23" value="&lt;span style=&quot;color: rgb(0, 0, 0); font-family: Helvetica; font-size: 18px; font-style: normal; font-variant-ligatures: normal; font-variant-caps: normal; font-weight: 400; letter-spacing: normal; orphans: 2; text-align: center; text-indent: 0px; text-transform: none; widows: 2; word-spacing: 0px; -webkit-text-stroke-width: 0px; white-space: normal; background-color: rgb(236, 236, 236); text-decoration-thickness: initial; text-decoration-style: initial; text-decoration-color: initial; float: none; display: inline !important;&quot;&gt;สั่งซื้อ&lt;/span&gt;" style="text;whiteSpace=wrap;html=1;" vertex="1" parent="1">
          <mxGeometry x="441" y="-332" width="46" height="44" as="geometry" />
        </mxCell>
        <mxCell id="cfBLmCmzg_fQDiiJpG3t-25" value="" style="endArrow=classic;html=1;rounded=0;fontSize=12;startSize=8;endSize=8;curved=1;" edge="1" parent="1">
          <mxGeometry width="50" height="50" relative="1" as="geometry">
            <mxPoint x="339" y="-103" as="sourcePoint" />
            <mxPoint x="339" y="-143" as="targetPoint" />
          </mxGeometry>
        </mxCell>
        <mxCell id="cfBLmCmzg_fQDiiJpG3t-33" style="edgeStyle=none;curved=1;rounded=0;orthogonalLoop=1;jettySize=auto;html=1;fontSize=12;startSize=8;endSize=8;" edge="1" parent="1" source="cfBLmCmzg_fQDiiJpG3t-27">
          <mxGeometry relative="1" as="geometry">
            <mxPoint x="702.347857931386" y="-310" as="targetPoint" />
          </mxGeometry>
        </mxCell>
        <mxCell id="cfBLmCmzg_fQDiiJpG3t-27" value="&lt;span style=&quot;color: rgb(0, 0, 0); font-family: Helvetica; font-size: 18px; font-style: normal; font-variant-ligatures: normal; font-variant-caps: normal; font-weight: 400; letter-spacing: normal; orphans: 2; text-align: center; text-indent: 0px; text-transform: none; widows: 2; word-spacing: 0px; -webkit-text-stroke-width: 0px; white-space: normal; background-color: rgb(236, 236, 236); text-decoration-thickness: initial; text-decoration-style: initial; text-decoration-color: initial; float: none; display: inline !important;&quot;&gt;ฝ่ายจัดซื้อทำรายการสั่งซื้อ&lt;/span&gt;" style="text;whiteSpace=wrap;html=1;" vertex="1" parent="1">
          <mxGeometry x="534" y="-332" width="108" height="44" as="geometry" />
        </mxCell>
        <mxCell id="cfBLmCmzg_fQDiiJpG3t-34" style="edgeStyle=none;curved=1;rounded=0;orthogonalLoop=1;jettySize=auto;html=1;fontSize=12;startSize=8;endSize=8;" edge="1" parent="1" source="cfBLmCmzg_fQDiiJpG3t-28">
          <mxGeometry relative="1" as="geometry">
            <mxPoint x="792.5" y="-195.3912831182065" as="targetPoint" />
          </mxGeometry>
        </mxCell>
        <mxCell id="cfBLmCmzg_fQDiiJpG3t-28" value="&lt;span style=&quot;color: rgb(0, 0, 0); font-family: Helvetica; font-size: 18px; font-style: normal; font-variant-ligatures: normal; font-variant-caps: normal; font-weight: 400; letter-spacing: normal; orphans: 2; text-align: center; text-indent: 0px; text-transform: none; widows: 2; word-spacing: 0px; -webkit-text-stroke-width: 0px; white-space: normal; background-color: rgb(236, 236, 236); text-decoration-thickness: initial; text-decoration-style: initial; text-decoration-color: initial; float: none; display: inline !important;&quot;&gt;ผู้จัดจำหน่ายรับรายการสั่งซื้อและออกใบเสร็จ&lt;/span&gt;" style="text;whiteSpace=wrap;html=1;" vertex="1" parent="1">
          <mxGeometry x="713" y="-332" width="159" height="80" as="geometry" />
        </mxCell>
        <mxCell id="cfBLmCmzg_fQDiiJpG3t-30" style="edgeStyle=none;curved=1;rounded=0;orthogonalLoop=1;jettySize=auto;html=1;entryX=1;entryY=0.5;entryDx=0;entryDy=0;fontSize=12;startSize=8;endSize=8;" edge="1" parent="1" source="cfBLmCmzg_fQDiiJpG3t-29" target="cfBLmCmzg_fQDiiJpG3t-6">
          <mxGeometry relative="1" as="geometry" />
        </mxCell>
        <mxCell id="cfBLmCmzg_fQDiiJpG3t-29" value="&lt;div style=&quot;text-align: center;&quot;&gt;&lt;span style=&quot;background-color: transparent; color: light-dark(rgb(0, 0, 0), rgb(255, 255, 255)); font-size: 18px;&quot;&gt;ฝ่ายจัดซื้อรับวัตถุดิบ&lt;/span&gt;&lt;/div&gt;" style="text;whiteSpace=wrap;html=1;" vertex="1" parent="1">
          <mxGeometry x="707" y="-190" width="159" height="44" as="geometry" />
        </mxCell>
        <mxCell id="cfBLmCmzg_fQDiiJpG3t-35" value="Business Diagram" style="text;html=1;whiteSpace=wrap;strokeColor=none;fillColor=none;align=center;verticalAlign=middle;rounded=0;fontSize=36;fontStyle=1" vertex="1" parent="1">
          <mxGeometry x="425" y="85" width="358" height="30" as="geometry" />
        </mxCell>
      </root>
    </mxGraphModel>
  </diagram>
</mxfile>
